<svg width="381" height="105" viewBox="0 0 381 105" fill="none" xmlns="http://www.w3.org/2000/svg">
<path d="M75.85 85.475C76.2167 85.475 76.5417 85.6167 76.825 85.9L79.475 88.775C78.0083 90.5917 76.2 91.9833 74.05 92.95C71.9167 93.9167 69.35 94.4 66.35 94.4C63.6667 94.4 61.25 93.9417 59.1 93.025C56.9667 92.1083 55.1417 90.8333 53.625 89.2C52.1083 87.5667 50.9417 85.6167 50.125 83.35C49.325 81.0833 48.925 78.6083 48.925 75.925C48.925 73.2083 49.3583 70.725 50.225 68.475C51.0917 66.2083 52.3083 64.2583 53.875 62.625C55.4583 60.9917 57.3417 59.725 59.525 58.825C61.7083 57.9083 64.125 57.45 66.775 57.45C69.4083 57.45 71.7417 57.8833 73.775 58.75C75.825 59.6167 77.5667 60.75 79 62.15L76.75 65.275C76.6167 65.475 76.4417 65.65 76.225 65.8C76.025 65.95 75.7417 66.025 75.375 66.025C75.125 66.025 74.8667 65.9583 74.6 65.825C74.3333 65.675 74.0417 65.5 73.725 65.3C73.4083 65.0833 73.0417 64.85 72.625 64.6C72.2083 64.35 71.725 64.125 71.175 63.925C70.625 63.7083 69.9833 63.5333 69.25 63.4C68.5333 63.25 67.7 63.175 66.75 63.175C65.1333 63.175 63.65 63.4667 62.3 64.05C60.9667 64.6167 59.8167 65.45 58.85 66.55C57.8833 67.6333 57.1333 68.9667 56.6 70.55C56.0667 72.1167 55.8 73.9083 55.8 75.925C55.8 77.9583 56.0833 79.7667 56.65 81.35C57.2333 82.9333 58.0167 84.2667 59 85.35C59.9833 86.4333 61.1417 87.2667 62.475 87.85C63.8083 88.4167 65.2417 88.7 66.775 88.7C67.6917 88.7 68.5167 88.65 69.25 88.55C70 88.45 70.6833 88.2917 71.3 88.075C71.9333 87.8583 72.525 87.5833 73.075 87.25C73.6417 86.9 74.2 86.475 74.75 85.975C74.9167 85.825 75.0917 85.7083 75.275 85.625C75.4583 85.525 75.65 85.475 75.85 85.475ZM98.6316 88.575C99.9316 88.575 101.09 88.3583 102.107 87.925C103.14 87.4917 104.007 86.8833 104.707 86.1C105.407 85.3167 105.94 84.3667 106.307 83.25C106.69 82.1333 106.882 80.8833 106.882 79.5V57.85H113.607V79.5C113.607 81.65 113.257 83.6417 112.557 85.475C111.873 87.2917 110.882 88.8667 109.582 90.2C108.298 91.5167 106.732 92.55 104.882 93.3C103.032 94.0333 100.948 94.4 98.6316 94.4C96.2983 94.4 94.2066 94.0333 92.3566 93.3C90.5066 92.55 88.9316 91.5167 87.6316 90.2C86.3483 88.8667 85.3566 87.2917 84.6566 85.475C83.9733 83.6417 83.6316 81.65 83.6316 79.5V57.85H90.3566V79.475C90.3566 80.8583 90.54 82.1083 90.9066 83.225C91.29 84.3417 91.8316 85.3 92.5316 86.1C93.2483 86.8833 94.115 87.4917 95.1316 87.925C96.165 88.3583 97.3316 88.575 98.6316 88.575ZM134.716 88.75C135.966 88.75 137.016 88.6 137.866 88.3C138.716 88 139.391 87.6 139.891 87.1C140.408 86.6 140.774 86.0167 140.991 85.35C141.224 84.6833 141.341 83.975 141.341 83.225C141.341 82.4417 141.216 81.7417 140.966 81.125C140.716 80.4917 140.324 79.9583 139.791 79.525C139.258 79.075 138.566 78.7333 137.716 78.5C136.883 78.2667 135.874 78.15 134.691 78.15H127.916V88.75H134.716ZM127.916 63.05V73.5H133.266C135.566 73.5 137.299 73.0833 138.466 72.25C139.649 71.4167 140.241 70.0917 140.241 68.275C140.241 66.3917 139.708 65.05 138.641 64.25C137.574 63.45 135.908 63.05 133.641 63.05H127.916ZM133.641 57.85C136.008 57.85 138.033 58.075 139.716 58.525C141.399 58.975 142.774 59.6167 143.841 60.45C144.924 61.2833 145.716 62.2917 146.216 63.475C146.716 64.6583 146.966 65.9917 146.966 67.475C146.966 68.325 146.841 69.1417 146.591 69.925C146.341 70.6917 145.949 71.4167 145.416 72.1C144.899 72.7667 144.233 73.375 143.416 73.925C142.616 74.475 141.658 74.9417 140.541 75.325C145.508 76.4417 147.991 79.125 147.991 83.375C147.991 84.9083 147.699 86.325 147.116 87.625C146.533 88.925 145.683 90.05 144.566 91C143.449 91.9333 142.074 92.6667 140.441 93.2C138.808 93.7333 136.941 94 134.841 94H121.191V57.85H133.641ZM160.851 63.2V73.225H173.501V78.4H160.851V88.625H176.901V94H154.101V57.85H176.901V63.2H160.851Z" fill="#404040"/>
<path d="M213.336 57.85V94H206.586V78.2H189.611V94H182.861V57.85H189.611V73.4H206.586V57.85H213.336ZM255.861 75.925C255.861 78.575 255.42 81.0333 254.536 83.3C253.67 85.55 252.436 87.5 250.836 89.15C249.236 90.8 247.311 92.0917 245.061 93.025C242.811 93.9417 240.311 94.4 237.561 94.4C234.828 94.4 232.336 93.9417 230.086 93.025C227.836 92.0917 225.903 90.8 224.286 89.15C222.686 87.5 221.445 85.55 220.561 83.3C219.678 81.0333 219.236 78.575 219.236 75.925C219.236 73.275 219.678 70.825 220.561 68.575C221.445 66.3083 222.686 64.35 224.286 62.7C225.903 61.05 227.836 59.7667 230.086 58.85C232.336 57.9167 234.828 57.45 237.561 57.45C239.395 57.45 241.12 57.6667 242.736 58.1C244.353 58.5167 245.836 59.1167 247.186 59.9C248.536 60.6667 249.745 61.6083 250.811 62.725C251.895 63.825 252.811 65.0583 253.561 66.425C254.311 67.7917 254.878 69.275 255.261 70.875C255.661 72.475 255.861 74.1583 255.861 75.925ZM248.986 75.925C248.986 73.9417 248.72 72.1667 248.186 70.6C247.653 69.0167 246.895 67.675 245.911 66.575C244.928 65.475 243.728 64.6333 242.311 64.05C240.911 63.4667 239.328 63.175 237.561 63.175C235.795 63.175 234.203 63.4667 232.786 64.05C231.386 64.6333 230.186 65.475 229.186 66.575C228.203 67.675 227.445 69.0167 226.911 70.6C226.378 72.1667 226.111 73.9417 226.111 75.925C226.111 77.9083 226.378 79.6917 226.911 81.275C227.445 82.8417 228.203 84.175 229.186 85.275C230.186 86.3583 231.386 87.1917 232.786 87.775C234.203 88.3583 235.795 88.65 237.561 88.65C239.328 88.65 240.911 88.3583 242.311 87.775C243.728 87.1917 244.928 86.3583 245.911 85.275C246.895 84.175 247.653 82.8417 248.186 81.275C248.72 79.6917 248.986 77.9083 248.986 75.925ZM273.517 76.025C274.751 76.025 275.826 75.875 276.742 75.575C277.659 75.2583 278.417 74.8167 279.017 74.25C279.634 73.6667 280.092 72.9667 280.392 72.15C280.692 71.3167 280.842 70.3917 280.842 69.375C280.842 68.4083 280.692 67.5333 280.392 66.75C280.092 65.9667 279.642 65.3 279.042 64.75C278.442 64.2 277.684 63.7833 276.767 63.5C275.851 63.2 274.767 63.05 273.517 63.05H268.492V76.025H273.517ZM273.517 57.85C275.934 57.85 278.026 58.1333 279.792 58.7C281.559 59.2667 283.017 60.0583 284.167 61.075C285.317 62.0917 286.167 63.3083 286.717 64.725C287.284 66.1417 287.567 67.6917 287.567 69.375C287.567 71.125 287.276 72.7333 286.692 74.2C286.109 75.65 285.234 76.9 284.067 77.95C282.901 79 281.434 79.8167 279.667 80.4C277.917 80.9833 275.867 81.275 273.517 81.275H268.492V94H261.767V57.85H273.517ZM304.474 76.025C305.708 76.025 306.783 75.875 307.699 75.575C308.616 75.2583 309.374 74.8167 309.974 74.25C310.591 73.6667 311.049 72.9667 311.349 72.15C311.649 71.3167 311.799 70.3917 311.799 69.375C311.799 68.4083 311.649 67.5333 311.349 66.75C311.049 65.9667 310.599 65.3 309.999 64.75C309.399 64.2 308.641 63.7833 307.724 63.5C306.808 63.2 305.724 63.05 304.474 63.05H299.449V76.025H304.474ZM304.474 57.85C306.891 57.85 308.983 58.1333 310.749 58.7C312.516 59.2667 313.974 60.0583 315.124 61.075C316.274 62.0917 317.124 63.3083 317.674 64.725C318.241 66.1417 318.524 67.6917 318.524 69.375C318.524 71.125 318.233 72.7333 317.649 74.2C317.066 75.65 316.191 76.9 315.024 77.95C313.858 79 312.391 79.8167 310.624 80.4C308.874 80.9833 306.824 81.275 304.474 81.275H299.449V94H292.724V57.85H304.474ZM330.431 63.2V73.225H343.081V78.4H330.431V88.625H346.481V94H323.681V57.85H346.481V63.2H330.431ZM363.366 75.05C364.633 75.05 365.733 74.8917 366.666 74.575C367.616 74.2583 368.391 73.825 368.991 73.275C369.608 72.7083 370.066 72.0417 370.366 71.275C370.666 70.5083 370.816 69.6667 370.816 68.75C370.816 66.9167 370.208 65.5083 368.991 64.525C367.791 63.5417 365.949 63.05 363.466 63.05H359.166V75.05H363.366ZM380.666 94H374.591C373.441 94 372.608 93.55 372.091 92.65L364.491 81.075C364.208 80.6417 363.891 80.3333 363.541 80.15C363.208 79.9667 362.708 79.875 362.041 79.875H359.166V94H352.441V57.85H363.466C365.916 57.85 368.016 58.1083 369.766 58.625C371.533 59.125 372.974 59.8333 374.091 60.75C375.224 61.6667 376.058 62.7667 376.591 64.05C377.124 65.3167 377.391 66.7167 377.391 68.25C377.391 69.4667 377.208 70.6167 376.841 71.7C376.491 72.7833 375.974 73.7667 375.291 74.65C374.624 75.5333 373.791 76.3083 372.791 76.975C371.808 77.6417 370.683 78.1667 369.416 78.55C369.849 78.8 370.249 79.1 370.616 79.45C370.983 79.7833 371.316 80.1833 371.616 80.65L380.666 94Z" fill="#F87052"/>
<rect y="69" width="24" height="24" fill="#F87052" fill-opacity="0.3"/>
<rect x="13" y="38" width="24" height="24" fill="#F87052" fill-opacity="0.5"/>
<rect x="43" y="19" width="24" height="24" fill="#F87052" fill-opacity="0.7"/>
<rect x="76" y="7" width="24" height="24" fill="#F87052"/>
</svg>
